<!DOCTYPE svg PUBLIC "-//W3C//DTD SVG 1.1//EN" "http://www.w3.org/Graphics/SVG/1.1/DTD/svg11.dtd">
<!-- Uploaded to: SVG Repo, www.svgrepo.com, Transformed by: SVG Repo Mixer Tools -->
<svg width="800px" height="800px" viewBox="0 0 16 16" xmlns="http://www.w3.org/2000/svg" fill="none">
<g id="SVGRepo_bgCarrier" stroke-width="0"/>
<g id="SVGRepo_tracerCarrier" stroke-linecap="round" stroke-linejoin="round"/>
<g id="SVGRepo_iconCarrier">
<path fill="#C69C6D" fill-rule="evenodd" d="M4.608 2H3.75a.75.75 0 000 1.5h.394l.987 2.154c.03.065.03.14.001.205l-2.949 6.685A1.75 1.75 0 003.784 15h8.432a1.75 1.75 0 001.6-2.456l-2.948-6.685a.25.25 0 01.001-.205l.987-2.154h.394a.75.75 0 000-1.5h-.858a.76.76 0 00-.033 0H4.64a.76.76 0 00-.033 0zm5.598 1.5H5.794l.7 1.529c.209.455.213.977.01 1.435L5.828 8h4.346l-.678-1.536a1.75 1.75 0 01.01-1.435l.701-1.529zm-6.65 9.65l1.61-3.65h5.669l1.61 3.65a.25.25 0 01-.23.35h-8.43a.25.25 0 01-.23-.35z" clip-rule="evenodd"/>
</g>
</svg>